<mxfile host="app.diagrams.net" modified="2024-01-22T15:48:19.931Z" agent="Mozilla/5.0 (Windows NT 10.0; Win64; x64) AppleWebKit/537.36 (KHTML, like Gecko) Chrome/120.0.0.0 Safari/537.36" etag="ykyIwfml3DZk4BXLik0i" version="22.1.21" type="device">
  <diagram name="Page-1" id="_7LvK5wftA-3owmfuRUE">
    <mxGraphModel dx="1592" dy="1096" grid="0" gridSize="10" guides="1" tooltips="1" connect="1" arrows="1" fold="1" page="0" pageScale="1" pageWidth="827" pageHeight="1169" math="0" shadow="0">
      <root>
        <mxCell id="0" />
        <mxCell id="1" parent="0" />
        <mxCell id="_JEu5WfPv4s35CNxxugA-36" style="edgeStyle=orthogonalEdgeStyle;curved=1;rounded=0;orthogonalLoop=1;jettySize=auto;html=1;exitX=0;exitY=0;exitDx=0;exitDy=0;entryX=1;entryY=0;entryDx=0;entryDy=0;endArrow=none;endFill=0;" edge="1" parent="1" source="_JEu5WfPv4s35CNxxugA-1" target="_JEu5WfPv4s35CNxxugA-2">
          <mxGeometry relative="1" as="geometry">
            <Array as="points">
              <mxPoint x="-462" y="233" />
              <mxPoint x="-138" y="233" />
            </Array>
          </mxGeometry>
        </mxCell>
        <mxCell id="_JEu5WfPv4s35CNxxugA-1" value="Buyer" style="ellipse;whiteSpace=wrap;html=1;" vertex="1" parent="1">
          <mxGeometry x="-480" y="330" width="120" height="80" as="geometry" />
        </mxCell>
        <mxCell id="_JEu5WfPv4s35CNxxugA-2" value="Seller" style="ellipse;whiteSpace=wrap;html=1;" vertex="1" parent="1">
          <mxGeometry x="-240" y="330" width="120" height="80" as="geometry" />
        </mxCell>
        <mxCell id="_JEu5WfPv4s35CNxxugA-3" value="Shipper" style="ellipse;whiteSpace=wrap;html=1;" vertex="1" parent="1">
          <mxGeometry x="-360" y="490" width="120" height="80" as="geometry" />
        </mxCell>
        <mxCell id="_JEu5WfPv4s35CNxxugA-5" value="" style="endArrow=none;html=1;rounded=0;exitX=1;exitY=0.5;exitDx=0;exitDy=0;entryX=0;entryY=0.5;entryDx=0;entryDy=0;" edge="1" parent="1" source="_JEu5WfPv4s35CNxxugA-1" target="_JEu5WfPv4s35CNxxugA-2">
          <mxGeometry width="50" height="50" relative="1" as="geometry">
            <mxPoint x="-250" y="580" as="sourcePoint" />
            <mxPoint x="-200" y="530" as="targetPoint" />
          </mxGeometry>
        </mxCell>
        <mxCell id="_JEu5WfPv4s35CNxxugA-6" value="Ask2sell" style="text;html=1;strokeColor=none;fillColor=none;align=center;verticalAlign=middle;whiteSpace=wrap;rounded=0;" vertex="1" parent="1">
          <mxGeometry x="-360" y="350" width="60" height="30" as="geometry" />
        </mxCell>
        <mxCell id="_JEu5WfPv4s35CNxxugA-8" value="Ask2sell" style="text;html=1;strokeColor=none;fillColor=none;align=center;verticalAlign=middle;whiteSpace=wrap;rounded=0;" vertex="1" parent="1">
          <mxGeometry x="-300" y="370" width="60" height="30" as="geometry" />
        </mxCell>
        <mxCell id="_JEu5WfPv4s35CNxxugA-9" value="" style="curved=1;endArrow=none;html=1;rounded=0;entryX=0;entryY=0;entryDx=0;entryDy=0;exitX=0.792;exitY=0.125;exitDx=0;exitDy=0;exitPerimeter=0;endFill=0;" edge="1" parent="1" source="_JEu5WfPv4s35CNxxugA-1" target="_JEu5WfPv4s35CNxxugA-2">
          <mxGeometry width="50" height="50" relative="1" as="geometry">
            <mxPoint x="-250" y="580" as="sourcePoint" />
            <mxPoint x="-200" y="530" as="targetPoint" />
            <Array as="points">
              <mxPoint x="-290" y="310" />
            </Array>
          </mxGeometry>
        </mxCell>
        <mxCell id="_JEu5WfPv4s35CNxxugA-10" value="quote2buy" style="text;html=1;strokeColor=none;fillColor=none;align=center;verticalAlign=middle;whiteSpace=wrap;rounded=0;" vertex="1" parent="1">
          <mxGeometry x="-400" y="310" width="60" height="30" as="geometry" />
        </mxCell>
        <mxCell id="_JEu5WfPv4s35CNxxugA-11" value="quote2buy" style="text;html=1;strokeColor=none;fillColor=none;align=center;verticalAlign=middle;whiteSpace=wrap;rounded=0;" vertex="1" parent="1">
          <mxGeometry x="-250" y="310" width="60" height="30" as="geometry" />
        </mxCell>
        <mxCell id="_JEu5WfPv4s35CNxxugA-13" value="" style="endArrow=none;html=1;rounded=0;exitX=0.5;exitY=1;exitDx=0;exitDy=0;entryX=0.5;entryY=1;entryDx=0;entryDy=0;" edge="1" parent="1" source="_JEu5WfPv4s35CNxxugA-1" target="_JEu5WfPv4s35CNxxugA-2">
          <mxGeometry width="50" height="50" relative="1" as="geometry">
            <mxPoint x="-250" y="580" as="sourcePoint" />
            <mxPoint x="-200" y="530" as="targetPoint" />
          </mxGeometry>
        </mxCell>
        <mxCell id="_JEu5WfPv4s35CNxxugA-14" value="" style="endArrow=none;html=1;rounded=0;exitX=1;exitY=0.5;exitDx=0;exitDy=0;entryX=1;entryY=1;entryDx=0;entryDy=0;" edge="1" parent="1" source="_JEu5WfPv4s35CNxxugA-3" target="_JEu5WfPv4s35CNxxugA-2">
          <mxGeometry width="50" height="50" relative="1" as="geometry">
            <mxPoint x="-250" y="580" as="sourcePoint" />
            <mxPoint x="-200" y="530" as="targetPoint" />
          </mxGeometry>
        </mxCell>
        <mxCell id="_JEu5WfPv4s35CNxxugA-15" value="" style="endArrow=none;html=1;rounded=0;exitX=0;exitY=1;exitDx=0;exitDy=0;entryX=0;entryY=0.5;entryDx=0;entryDy=0;" edge="1" parent="1" source="_JEu5WfPv4s35CNxxugA-1" target="_JEu5WfPv4s35CNxxugA-3">
          <mxGeometry width="50" height="50" relative="1" as="geometry">
            <mxPoint x="-250" y="580" as="sourcePoint" />
            <mxPoint x="-200" y="530" as="targetPoint" />
          </mxGeometry>
        </mxCell>
        <mxCell id="_JEu5WfPv4s35CNxxugA-17" value="accept2sell" style="text;html=1;strokeColor=none;fillColor=none;align=center;verticalAlign=middle;whiteSpace=wrap;rounded=0;" vertex="1" parent="1">
          <mxGeometry x="-143" y="284" width="60" height="30" as="geometry" />
        </mxCell>
        <mxCell id="_JEu5WfPv4s35CNxxugA-18" value="reject2sell" style="text;html=1;strokeColor=none;fillColor=none;align=center;verticalAlign=middle;whiteSpace=wrap;rounded=0;" vertex="1" parent="1">
          <mxGeometry x="-410" y="410" width="60" height="30" as="geometry" />
        </mxCell>
        <mxCell id="_JEu5WfPv4s35CNxxugA-19" value="accept2sell" style="text;html=1;strokeColor=none;fillColor=none;align=center;verticalAlign=middle;whiteSpace=wrap;rounded=0;" vertex="1" parent="1">
          <mxGeometry x="-520" y="290" width="60" height="30" as="geometry" />
        </mxCell>
        <mxCell id="_JEu5WfPv4s35CNxxugA-20" value="reject2sell" style="text;html=1;strokeColor=none;fillColor=none;align=center;verticalAlign=middle;whiteSpace=wrap;rounded=0;" vertex="1" parent="1">
          <mxGeometry x="-250" y="410" width="60" height="30" as="geometry" />
        </mxCell>
        <mxCell id="_JEu5WfPv4s35CNxxugA-21" value="details2buy" style="text;html=1;strokeColor=none;fillColor=none;align=center;verticalAlign=middle;whiteSpace=wrap;rounded=0;" vertex="1" parent="1">
          <mxGeometry x="-430" y="520" width="60" height="30" as="geometry" />
        </mxCell>
        <mxCell id="_JEu5WfPv4s35CNxxugA-22" value="details2buy" style="text;html=1;strokeColor=none;fillColor=none;align=center;verticalAlign=middle;whiteSpace=wrap;rounded=0;" vertex="1" parent="1">
          <mxGeometry x="-520" y="400" width="60" height="30" as="geometry" />
        </mxCell>
        <mxCell id="_JEu5WfPv4s35CNxxugA-23" value="order2ship" style="text;html=1;strokeColor=none;fillColor=none;align=center;verticalAlign=middle;whiteSpace=wrap;rounded=0;" vertex="1" parent="1">
          <mxGeometry x="-250" y="555" width="60" height="30" as="geometry" />
        </mxCell>
        <mxCell id="_JEu5WfPv4s35CNxxugA-24" value="order2ship" style="text;html=1;strokeColor=none;fillColor=none;align=center;verticalAlign=middle;whiteSpace=wrap;rounded=0;" vertex="1" parent="1">
          <mxGeometry x="-140" y="400" width="60" height="30" as="geometry" />
        </mxCell>
        <mxCell id="_JEu5WfPv4s35CNxxugA-25" value="" style="endArrow=none;html=1;rounded=0;" edge="1" parent="1">
          <mxGeometry width="50" height="50" relative="1" as="geometry">
            <mxPoint x="-420" y="520" as="sourcePoint" />
            <mxPoint x="-380" y="520" as="targetPoint" />
            <Array as="points">
              <mxPoint x="-380" y="520" />
            </Array>
          </mxGeometry>
        </mxCell>
        <mxCell id="_JEu5WfPv4s35CNxxugA-26" value="" style="endArrow=none;html=1;rounded=0;" edge="1" parent="1">
          <mxGeometry width="50" height="50" relative="1" as="geometry">
            <mxPoint x="-130" y="400" as="sourcePoint" />
            <mxPoint x="-90" y="400" as="targetPoint" />
            <Array as="points">
              <mxPoint x="-90" y="400" />
            </Array>
          </mxGeometry>
        </mxCell>
        <mxCell id="_JEu5WfPv4s35CNxxugA-27" value="" style="endArrow=none;html=1;rounded=0;" edge="1" parent="1">
          <mxGeometry width="50" height="50" relative="1" as="geometry">
            <mxPoint x="-513" y="290" as="sourcePoint" />
            <mxPoint x="-473" y="290" as="targetPoint" />
            <Array as="points">
              <mxPoint x="-473" y="290" />
            </Array>
          </mxGeometry>
        </mxCell>
        <mxCell id="_JEu5WfPv4s35CNxxugA-28" value="" style="endArrow=none;html=1;rounded=0;" edge="1" parent="1">
          <mxGeometry width="50" height="50" relative="1" as="geometry">
            <mxPoint x="-240" y="309" as="sourcePoint" />
            <mxPoint x="-200" y="309" as="targetPoint" />
            <Array as="points">
              <mxPoint x="-200" y="309" />
            </Array>
          </mxGeometry>
        </mxCell>
        <mxCell id="_JEu5WfPv4s35CNxxugA-29" value="" style="endArrow=none;html=1;rounded=0;" edge="1" parent="1">
          <mxGeometry width="50" height="50" relative="1" as="geometry">
            <mxPoint x="-400" y="414.5" as="sourcePoint" />
            <mxPoint x="-360" y="414.5" as="targetPoint" />
            <Array as="points">
              <mxPoint x="-360" y="414.5" />
            </Array>
          </mxGeometry>
        </mxCell>
        <mxCell id="_JEu5WfPv4s35CNxxugA-30" value="" style="endArrow=none;html=1;rounded=0;" edge="1" parent="1">
          <mxGeometry width="50" height="50" relative="1" as="geometry">
            <mxPoint x="-350" y="350" as="sourcePoint" />
            <mxPoint x="-310" y="350" as="targetPoint" />
            <Array as="points">
              <mxPoint x="-310" y="350" />
            </Array>
          </mxGeometry>
        </mxCell>
      </root>
    </mxGraphModel>
  </diagram>
</mxfile>
